<?xml version="1.0" encoding="UTF-8"?>
<svg version="1.1" xmlns="http://www.w3.org/2000/svg" width="2847" height="499">
<path d="M0 0 C1.18650579 -0.00155999 2.37301158 -0.00311998 3.5954721 -0.00472724 C6.86743677 -0.00801009 10.13936391 -0.00684874 13.4113276 -0.00374103 C16.95718848 -0.00146608 20.50304452 -0.00497912 24.04890442 -0.00772095 C31.02413025 -0.01217338 37.99934531 -0.01119925 44.97457156 -0.00830831 C50.72397215 -0.00602844 56.47336977 -0.00575289 62.22277069 -0.00683212 C63.46227246 -0.00706197 63.46227246 -0.00706197 64.72681467 -0.00729647 C66.40844649 -0.00761637 68.09007831 -0.00794059 69.77171013 -0.00826906 C85.60079986 -0.0111283 101.42988383 -0.00784202 117.25897262 -0.00246869 C130.49904717 0.00189082 143.73911267 0.00125071 156.97918701 -0.00338745 C202.37615747 -0.01867048 247.77284377 0.01075779 293.16971609 0.11048369 C298.34076066 0.12177614 303.51180607 0.13215541 308.68285401 0.14177843 C328.16436985 0.17809243 347.64570453 0.2283486 367.12704158 0.32134211 C368.72474709 0.32893402 370.32245269 0.33650642 371.92015839 0.34405899 C372.70422558 0.34776573 373.48829278 0.35147247 374.29611959 0.35529154 C379.74219037 0.38003413 385.18823002 0.39473656 390.63434601 0.40481186 C397.18226888 0.41702698 403.72995859 0.44286589 410.2777496 0.48666796 C413.58893579 0.5084714 416.89958707 0.52210398 420.21088314 0.5226903 C442.20854256 0.53356348 458.92376976 2.94710102 475.56170654 18.75979614 C489.39057071 32.93964671 496.03272956 49.12738524 496.01074219 68.92926025 C496.01519887 70.20489013 496.01519887 70.20489013 496.01974559 71.50629032 C496.02837114 74.33705895 496.0299356 77.16778498 496.03143311 79.99856567 C496.03606564 82.03611846 496.04109089 84.07367038 496.04647827 86.11122131 C496.05956251 91.63423841 496.06603948 97.15724337 496.07048893 102.68027353 C496.07342616 106.1358179 496.07753219 109.59135899 496.0819931 113.0469017 C496.09565773 123.87298889 496.10532938 134.69906856 496.10919499 145.52516377 C496.11367294 157.99536306 496.13121306 170.46545259 496.16019559 182.93561852 C496.18185638 192.59282119 496.19190162 202.24999308 496.19323611 211.90721977 C496.19428101 217.66663521 496.20012156 223.42594733 496.21805573 229.18533707 C496.23461249 234.60758646 496.23665515 240.0296557 496.22791672 245.45192146 C496.2271504 247.43272321 496.23143509 249.41353495 496.24137497 251.3943119 C496.30686216 265.26710131 495.94524316 278.76676891 489.24530029 291.31448364 C488.89902588 291.98028442 488.55275146 292.64608521 488.19598389 293.33206177 C479.81627513 308.88420132 466.30369229 320.70414751 449.28426915 325.91942328 C439.60753769 328.41840957 430.39790111 328.56117131 420.48277283 328.53916931 C418.6432901 328.54605153 416.80381185 328.5542316 414.96434003 328.56358737 C409.9394685 328.58539251 404.91473111 328.58880192 399.88981855 328.58904159 C394.45884735 328.59254532 389.02793725 328.61323626 383.59700012 328.63171387 C372.96872758 328.66513702 362.34048591 328.6826661 351.71216985 328.69464133 C339.32455337 328.70911808 326.93698665 328.73871389 314.54939977 328.7687343 C291.77092074 328.82333688 268.99243871 328.86187864 246.21391713 328.89316199 C225.44756753 328.92176887 204.68128092 328.96295628 183.91497803 329.01541138 C160.55523061 329.07434682 137.19548581 329.12688644 113.83569986 329.16813868 C111.34223671 329.17254782 108.84877358 329.17695881 106.35531044 329.18137169 C105.1286035 329.18353226 103.90189655 329.18569283 102.63801667 329.18791888 C94.01267278 329.20349534 85.3873453 329.22343387 76.76201439 329.24494362 C66.24165476 329.27098734 55.72131222 329.28951882 45.20092388 329.29869578 C39.83794402 329.30353646 34.47502107 329.31153044 29.11206436 329.32839394 C24.1939193 329.34375526 19.27585477 329.34957674 14.3576868 329.34807547 C12.58727191 329.34914382 10.81685486 329.35355749 9.04645898 329.36183152 C-16.17219063 329.47416225 -37.82183895 325.7835142 -57.12969971 308.12698364 C-62.34135768 302.80036263 -66.0517306 296.83560125 -69.44219971 290.25198364 C-69.76784912 289.62872192 -70.09349854 289.00546021 -70.42901611 288.36331177 C-76.56988639 275.83248754 -76.56328519 263.2277269 -76.5178833 249.60183716 C-76.52195458 247.54236575 -76.52729956 245.48289653 -76.53381348 243.4234314 C-76.54742756 237.85934196 -76.54221265 232.29542042 -76.53267622 226.73132825 C-76.5250479 220.89046627 -76.53213411 215.04961807 -76.53683472 209.20875549 C-76.54228348 199.40144284 -76.53512419 189.59419808 -76.52081299 179.78689575 C-76.50449278 168.47268305 -76.50977404 157.1586326 -76.5262922 145.84442383 C-76.53993757 136.10561636 -76.5418117 126.36685754 -76.5339762 116.62804359 C-76.52931585 110.82234569 -76.52862946 105.01672387 -76.53858566 99.21103096 C-76.54729736 93.75013316 -76.54115699 88.28944304 -76.52390289 82.8285675 C-76.51996022 80.83283774 -76.52103368 78.83709028 -76.52769089 76.84136772 C-76.5689858 63.19627608 -76.04001931 50.46226553 -69.62969971 38.06448364 C-69.29003174 37.39747437 -68.95036377 36.73046509 -68.60040283 36.04324341 C-64.83826651 29.03450416 -59.82351915 23.61054388 -54.12969971 18.12698364 C-53.47356689 17.45151489 -52.81743408 16.77604614 -52.14141846 16.08010864 C-37.97579087 2.3694798 -18.7525369 -0.03831171 0 0 Z M-22.12969971 44.12698364 C-23.03137771 46.83201764 -23.25763987 48.39159174 -23.2667141 51.16786003 C-23.27178864 51.99283104 -23.27686318 52.81780205 -23.2820915 53.66777217 C-23.28258926 54.57388685 -23.28308701 55.48000152 -23.28359985 56.41357422 C-23.28798211 57.37632802 -23.29236436 58.33908182 -23.29687941 59.33100998 C-23.3102817 62.57143414 -23.31644943 65.81183109 -23.3225708 69.05227661 C-23.33047047 71.36970137 -23.33873933 73.6871249 -23.34735107 76.00454712 C-23.3735809 83.62607649 -23.38887698 91.24761139 -23.40313721 98.86917114 C-23.40849598 101.49007292 -23.41387348 104.11097467 -23.41926956 106.73187637 C-23.44089727 117.62993099 -23.45978732 128.52798331 -23.47089195 139.426054 C-23.47382166 142.25361002 -23.47678332 145.081166 -23.47979736 147.90872192 C-23.48054341 148.61149895 -23.48128946 149.31427598 -23.48205812 150.03834929 C-23.49471817 161.42887661 -23.52795112 172.81924806 -23.5695992 184.20970248 C-23.61200115 195.90206387 -23.63517701 207.59433714 -23.64081252 219.28677475 C-23.64447285 225.85255954 -23.65656729 232.41807993 -23.68891525 238.98379135 C-23.71889811 245.15784533 -23.7253425 251.33147355 -23.71353149 257.50558472 C-23.71330996 259.77398385 -23.72168064 262.04240219 -23.73918533 264.3107338 C-23.76175442 267.40314908 -23.7536384 270.49400437 -23.73770142 273.58642578 C-23.7515835 274.48807901 -23.76546559 275.38973224 -23.77976835 276.3187083 C-23.72365652 280.72502149 -23.59481571 282.539027 -20.7791996 286.09826851 C-18.94277328 287.50441533 -17.05418555 288.84399308 -15.12969971 290.12698364 C-13.98043705 289.17276556 -12.8353943 288.2134632 -11.69219971 287.25198364 C-11.05411377 286.71831177 -10.41602783 286.18463989 -9.75860596 285.63479614 C-8.02164966 284.20470794 -8.02164966 284.20470794 -7.12969971 282.12698364 C-7.02701533 279.11916052 -6.98633592 276.13423751 -6.98925781 273.1259613 C-6.98628669 272.18180727 -6.98331557 271.23765323 -6.98025441 270.26488847 C-6.97153939 267.08129743 -6.97005679 263.89774388 -6.96856689 260.71414185 C-6.96394064 258.43951842 -6.95891625 256.16489578 -6.95352173 253.89027405 C-6.94037575 247.69590544 -6.93394831 241.50154768 -6.92951107 235.30716729 C-6.92658344 231.43930111 -6.92247919 227.57143791 -6.9180069 223.70357323 C-6.90589392 212.99514128 -6.89551366 202.28671298 -6.89213181 191.57827473 C-6.89191224 190.89262009 -6.89169267 190.20696546 -6.89146645 189.50053341 C-6.89124818 188.81322989 -6.8910299 188.12592638 -6.89080501 187.41779548 C-6.89036154 186.02504114 -6.88991498 184.63228681 -6.88946533 183.23953247 C-6.8892439 182.54867702 -6.88902247 181.85782157 -6.88879433 181.1460311 C-6.88484824 169.95729979 -6.86740118 158.76863368 -6.84410581 147.57992754 C-6.82038316 136.09324897 -6.8081874 124.60661238 -6.80676389 113.11990803 C-6.80571483 106.67037303 -6.79978568 100.2209299 -6.78194427 93.77141762 C-6.76548545 87.70332465 -6.76329754 81.63539285 -6.77208328 75.56728554 C-6.77285487 73.34005299 -6.76849499 71.11281186 -6.75862503 68.88560104 C-6.74593896 65.84451619 -6.7517645 62.80400496 -6.76220703 59.76292419 C-6.75415063 58.88197832 -6.74609422 58.00103244 -6.73779368 57.09339124 C-6.78114468 51.6934543 -7.5409199 47.90049258 -10.12969971 43.12698364 C-15.45900189 39.09751126 -17.29263368 39.78602696 -22.12969971 44.12698364 Z M207.27301598 42.5577774 C205.11420176 46.51184951 205.45719748 50.2942822 205.48934937 54.7303772 C205.48466939 55.71510875 205.47998942 56.69984031 205.47516763 57.71441221 C205.46317496 61.02329585 205.47269171 64.3317686 205.4821167 67.64065552 C205.47805291 70.00911196 205.47271211 72.37756651 205.46618652 74.74601746 C205.45390826 80.51673871 205.45573134 86.28732877 205.46442445 92.05805409 C205.47119666 96.74757989 205.47211972 101.43707288 205.468853 106.12660217 C205.4683933 106.79376738 205.4679336 107.46093259 205.46745997 108.14831492 C205.4665008 109.50360287 205.46552816 110.85889081 205.4645422 112.21417874 C205.45598536 124.92592581 205.46582701 137.637608 205.48194329 150.34934443 C205.49534676 161.25914338 205.49301875 172.16884658 205.47918701 183.0786438 C205.46313635 195.74456818 205.45680936 208.41043568 205.4660238 221.07636881 C205.46697946 222.4267009 205.46792257 223.777033 205.468853 225.12736511 C205.46931582 225.79177289 205.46977865 226.45618066 205.4702555 227.14072201 C205.47284694 231.82519757 205.46847109 236.50963708 205.46141434 241.19410706 C205.45276519 247.49779787 205.45872914 253.80130738 205.47609711 260.10497856 C205.48007292 262.42215613 205.47890931 264.73934888 205.47230911 267.05652046 C205.46414689 270.2124182 205.47435103 273.36772998 205.48934937 276.52359009 C205.4826572 277.44692878 205.47596503 278.37026748 205.46907008 279.32158613 C205.50234456 282.91559454 205.53265588 285.44811923 207.14801598 288.69594574 C209.57235401 290.71031676 211.86331171 290.67559703 214.93280029 290.51760864 C217.92521651 289.91429892 219.15994403 288.58989667 220.87030029 286.12698364 C221.73292834 283.37164347 221.99605309 280.88807008 221.99893475 278.00991154 C222.00215919 277.19339967 222.00538364 276.3768878 222.00870579 275.53563315 C222.00715719 274.64410416 222.00560859 273.75257517 222.00401306 272.83403015 C222.00627862 271.88267258 222.00854417 270.93131501 222.01087838 269.95112842 C222.01722127 266.75525866 222.01638883 263.55943128 222.01556396 260.36355591 C222.01855525 258.07554062 222.0219577 255.78752583 222.02574158 253.49951172 C222.03458824 247.27853419 222.03691995 241.0575704 222.03755736 234.83658719 C222.03850593 229.6474909 222.04218358 224.45839784 222.04572946 219.26930279 C222.05341078 207.72943665 222.05639785 196.18957838 222.05572411 184.64971007 C222.05566417 183.61111796 222.05566417 183.61111796 222.05560303 182.55154419 C222.05556215 181.85830451 222.05552127 181.16506482 222.05547915 180.45081788 C222.05507257 169.21237937 222.06464517 157.97397434 222.07874139 146.73554552 C222.09310013 135.19683443 222.09982866 123.65814401 222.09914762 112.11942333 C222.09889228 105.64094128 222.10176306 99.16249713 222.11232567 92.6840229 C222.12198534 86.59295298 222.12210048 80.50195736 222.11480904 74.41088486 C222.11376059 72.17313847 222.11614144 69.93538751 222.12216949 67.697649 C222.12985548 64.64731806 222.12526709 61.59724591 222.11753845 58.54692078 C222.12268202 57.65762251 222.12782558 56.76832424 222.13312501 55.85207754 C222.10383859 50.63569485 221.54760644 46.82931021 218.74530029 42.31448364 C216.12114226 40.65251689 213.86178578 40.71765084 210.80780029 40.63088989 C208.77235549 40.99322846 208.77235549 40.99322846 207.27301598 42.5577774 Z M435.99530029 42.43948364 C434.08258928 45.30855016 433.74497385 47.81928399 433.74166584 51.16786003 C433.73844139 51.99283104 433.73521695 52.81780205 433.73189479 53.66777217 C433.73344339 54.57388685 433.734992 55.48000152 433.73658752 56.41357422 C433.73432197 57.37632802 433.73205641 58.33908182 433.7297222 59.33100998 C433.72336951 62.57144424 433.72421238 65.8118368 433.72503662 69.05227661 C433.72204592 71.36970067 433.7186436 73.68712422 433.71485901 76.00454712 C433.70600575 82.31029187 433.70368034 88.61602307 433.70304322 94.92177343 C433.70209514 100.18040871 433.69841801 105.43904081 433.69487113 110.69767487 C433.68718738 122.39234742 433.68420296 134.08701333 433.68487648 145.7816882 C433.68491644 146.48360933 433.68495639 147.18553046 433.68499756 147.90872192 C433.68503844 148.61149895 433.68507932 149.31427598 433.68512144 150.03834929 C433.68552792 161.42881455 433.6759582 172.81924677 433.66185919 184.20970248 C433.64750055 195.90206278 433.64077194 207.59440545 433.64145297 219.28677475 C433.64170833 225.85246199 433.63883617 232.41811183 433.62827492 238.98379135 C433.61861535 245.15774606 433.61850004 251.33162747 433.62579155 257.50558472 C433.62684006 259.77396883 433.62445881 262.04235745 433.61843109 264.3107338 C433.61074583 267.40271816 433.61533305 270.49444716 433.62306213 273.58642578 C433.61791857 274.48807901 433.61277501 275.38973224 433.60747558 276.3187083 C433.63781351 281.79538997 433.80578183 286.06246518 437.87030029 290.12698364 C440.87627353 290.46636772 442.97176572 290.69521121 445.87030029 290.12698364 C449.38360326 286.88393475 450.69343174 283.85644076 450.99795079 279.15706557 C450.99919729 278.46065579 451.00044379 277.76424601 451.00172806 277.0467329 C451.0055692 276.23842122 451.00941035 275.43010954 451.01336789 274.59730357 C451.01250141 273.71492072 451.01163493 272.83253786 451.01074219 271.92341614 C451.01371331 270.9816368 451.01668443 270.03985747 451.01974559 269.06953937 C451.02843434 265.90597995 451.02994099 262.74245836 451.03143311 259.57888794 C451.03606112 257.3138216 451.04108576 255.04875605 451.04647827 252.78369141 C451.05960509 246.62456407 451.06604768 240.46544764 451.07048893 234.30630851 C451.07341894 230.45953776 451.0775236 226.61277 451.0819931 222.76600075 C451.09410134 212.11238919 451.10448382 201.45878128 451.10786819 190.80516338 C451.10808776 190.1235466 451.10830733 189.44192982 451.10853355 188.73965799 C451.10875182 188.05642562 451.1089701 187.37319325 451.10919499 186.66925687 C451.10963846 185.28480446 451.11008502 183.90035206 451.11053467 182.51589966 C451.1107561 181.82916583 451.11097753 181.14243199 451.11120567 180.43488804 C451.11515357 169.30771574 451.1326082 158.18060893 451.15589419 147.05346193 C451.17961646 135.62547947 451.19181252 124.19754459 451.19323611 112.76953441 C451.19428499 106.35468158 451.20021069 99.93992115 451.21805573 93.52509117 C451.23451383 87.49144401 451.23670282 81.45795892 451.22791672 75.42429733 C451.22714516 73.20996352 451.23150464 70.99562108 451.24137497 68.78130913 C451.25406162 65.75784644 451.24823526 62.73496066 451.23779297 59.71150208 C451.24584937 58.83581139 451.25390578 57.9601207 451.26220632 57.05789393 C451.21874406 51.67520706 450.48120643 47.87337407 447.87030029 43.12698364 C444.06612695 40.59086808 439.98123689 39.64932802 435.99530029 42.43948364 Z M159.87030029 86.12698364 C158.33640099 89.19478226 158.72598673 92.40842057 158.7298584 95.77476501 C158.72688728 96.5733223 158.72391615 97.37187958 158.720855 98.19463557 C158.71214481 100.88539291 158.7106578 103.57610588 158.70916748 106.26687622 C158.70454094 108.19006954 158.6995165 110.11326193 158.69412231 112.03645325 C158.68098033 117.2720404 158.67454983 122.50761472 158.67011166 127.7432158 C158.66718377 131.01205192 158.6630795 134.28088451 158.65860748 137.54971886 C158.64492769 147.77085855 158.63526345 157.99199019 158.63140559 168.2131384 C158.62692379 180.02355468 158.60937221 191.83385529 158.580405 203.64423639 C158.55880821 212.76530089 158.54870238 221.88633281 158.54736447 231.00742263 C158.54631499 236.45868126 158.54037676 241.90983123 158.52254486 247.361063 C158.50609885 252.48854963 158.50389179 257.61584552 158.51268387 262.74334908 C158.51345611 264.62633524 158.50908696 266.50933152 158.49922562 268.39229202 C158.48656007 270.96117387 158.49235336 273.52937464 158.50280762 276.09825134 C158.49475121 276.84494876 158.48669481 277.59164618 158.47839427 278.3609708 C158.5205334 282.7825975 159.13827554 285.61276171 161.87030029 289.12698364 C164.96203781 290.6728524 167.46459582 290.42057886 170.87030029 290.12698364 C173.22332476 288.67614876 173.22332476 288.67614876 174.87030029 286.12698364 C175.26529946 283.32845126 175.41532994 280.92247122 175.38496399 278.12480164 C175.39190952 277.31228485 175.39885505 276.49976806 175.40601104 275.66262954 C175.42432705 272.93635812 175.41400416 270.21095237 175.40374756 267.48464966 C175.41080373 265.5315994 175.41954746 263.57855461 175.42985535 261.6255188 C175.45239326 256.31764869 175.44939926 251.01007613 175.44053388 245.70217633 C175.43543051 241.2735713 175.44271128 236.8450225 175.45000595 232.41642326 C175.46701904 221.97020282 175.46342499 211.5241284 175.44671631 201.07791138 C175.42979275 190.29529501 175.44562971 179.5130834 175.47793919 168.73051125 C175.50461596 159.4777446 175.51191627 150.2251041 175.50342411 140.97230285 C175.49848941 135.44389772 175.50073991 129.91573619 175.52121162 124.38736153 C175.53953862 119.18911469 175.53364637 113.99145108 175.50901222 108.79323578 C175.50399489 106.88445516 175.50751793 104.97563034 175.52016068 103.06688499 C175.5360467 100.46263217 175.52118371 97.86031032 175.49848938 95.25614929 C175.51032511 94.49914327 175.52216084 93.74213724 175.53435522 92.96219164 C175.464548 89.02460761 174.99335278 87.28279594 172.52244473 84.15406704 C170.00518443 81.91235075 170.00518443 81.91235075 166.80780029 81.56448364 C163.25295449 82.2451988 162.09325429 83.32770824 159.87030029 86.12698364 Z M23.64497948 87.43368149 C19.66818019 93.46898194 20.81736277 101.67054828 20.91448975 108.65090942 C20.91183361 110.55514284 20.90569671 112.45937411 20.89634705 114.36358643 C20.88125394 119.52504227 20.9159107 124.68508485 20.96035409 129.8463273 C20.99925532 135.24916463 20.99510163 140.65197859 20.99632263 146.05493164 C21.00463926 155.12557951 21.04322632 164.19568917 21.10198975 173.2661438 C21.16977083 183.75394638 21.19962478 194.24128905 21.20696479 204.72929776 C21.21483827 215.89643606 21.24564267 227.06341254 21.28575873 238.23047781 C21.29608512 241.44841166 21.30264757 244.6663365 21.30858803 247.88428116 C21.31938352 252.93887788 21.34590189 257.9931614 21.3846302 263.04761887 C21.39659123 264.90316451 21.40350314 266.75875053 21.40501785 268.61433411 C21.40802379 271.14581757 21.42945538 273.6764908 21.45570374 276.20782471 C21.45242217 276.94332963 21.4491406 277.67883456 21.44575959 278.43662751 C21.51596469 282.82281168 22.17082107 285.63667155 24.87030029 289.12698364 C27.92014025 290.65190362 30.51263719 290.36260912 33.87030029 290.12698364 C35.95116566 288.73974006 36.63887853 287.81160501 37.43267632 285.46329117 C38.02842483 282.28281705 37.99633668 279.23252127 37.99728394 275.99606323 C37.99962392 274.91756178 37.99962392 274.91756178 38.00201118 273.81727242 C38.00600065 271.40714231 38.0028393 268.99707517 37.99969482 266.58694458 C38.00104992 264.8586422 38.00283046 263.13034011 38.00500488 261.40203857 C38.00957043 256.70299671 38.00779217 252.00397676 38.0046258 247.3049345 C38.00209282 242.37698495 38.00444281 237.44903727 38.00601196 232.52108765 C38.00783296 224.23216415 38.0054313 215.94324954 38.00067139 207.65432739 C37.99525042 198.10471303 37.99697587 188.5551201 38.00249779 179.00550628 C38.0070567 170.78953042 38.00766529 162.57356096 38.00505912 154.35758424 C38.00350879 149.45881186 38.00326775 144.56004949 38.00659561 139.66127777 C38.00951402 135.04183849 38.00742675 130.42242635 38.00170135 125.80298996 C38.00039389 124.11974762 38.00073298 122.43650294 38.00296402 120.75326157 C38.00922545 115.54302975 37.96252768 110.33635509 37.87030029 105.12698364 C37.86248205 104.39018781 37.8546638 103.65339197 37.84660864 102.89426899 C37.81566206 100.71830441 37.75018065 98.54601197 37.67471313 96.3711853 C37.64107603 95.11905369 37.60743893 93.86692207 37.57278252 92.57684708 C36.65384376 88.06397385 35.11998472 86.34197564 31.87030029 83.12698364 C28.30505071 83.12698364 26.20625261 85.10435823 23.64497948 87.43368149 Z M258.87030029 82.12698364 C255.29899996 84.16772669 253.16527939 85.684515 250.87030029 89.12698364 C250.67691663 91.75400169 250.60072919 94.27458337 250.61633301 96.90174866 C250.61321303 97.70186593 250.61009305 98.50198321 250.60687852 99.32634646 C250.5988799 102.01639542 250.60522941 104.70621997 250.61151123 107.39627075 C250.60880217 109.32123446 250.60524172 111.24619714 250.60089111 113.17115784 C250.59175408 118.40664472 250.59531694 123.642053 250.60164928 128.8775413 C250.60670321 134.35030378 250.60201946 139.82305941 250.59887695 145.29582214 C250.59523523 154.48849703 250.6000415 163.6811398 250.60955811 172.87380981 C250.62043981 183.50804403 250.61691996 194.14220154 250.60590529 204.77643389 C250.59683445 213.89835643 250.59554625 223.02025586 250.60078263 232.14218146 C250.60390386 237.59391987 250.60430754 243.04562221 250.59770966 248.49735832 C250.5919399 253.62319218 250.59592635 258.748927 250.60749817 263.87475014 C250.61014687 265.75815033 250.6093761 267.64155884 250.60497284 269.52495575 C250.59952417 272.09182872 250.60634329 274.65838247 250.61633301 277.22523499 C250.61187156 277.97416313 250.60741012 278.72309127 250.60281348 279.4947142 C250.63062715 283.1683282 250.7073105 286.06786263 252.87030029 289.12698364 C256.0583387 290.72100284 259.40866822 290.64480975 262.87030029 290.12698364 C265.49221583 287.75880187 266.22811144 285.52453969 266.87030029 282.12698364 C266.97230745 279.52898988 267.02244145 276.95742111 267.02420044 274.35931396 C267.02858269 273.57200405 267.03296495 272.78469414 267.03748 271.97352636 C267.05084519 269.3327818 267.05704165 266.6920706 267.06317139 264.05130005 C267.07107394 262.15898997 267.07934299 260.26668139 267.08795166 258.37437439 C267.11414674 252.1591129 267.12947347 245.94384475 267.14373779 239.72854614 C267.14909788 237.58902355 267.15447539 235.44950099 267.15987015 233.30997849 C267.1814922 224.41236009 267.20023031 215.51474349 267.21149254 206.61710548 C267.22774289 193.86273243 267.26095485 181.10866346 267.31789339 168.35440505 C267.35656367 159.38700116 267.37612159 150.41967871 267.3814131 141.45219362 C267.38506958 136.0952962 267.39712314 130.73872329 267.42951584 125.38191605 C267.45954629 120.34377183 267.4659262 115.30614937 267.45413208 110.2679348 C267.45391095 108.4192161 267.46224874 106.57047353 267.47978592 104.721838 C267.5024358 102.19680235 267.49420334 99.67366561 267.478302 97.14862061 C267.49218409 96.41787311 267.50606618 95.68712562 267.52036893 94.93423426 C267.46102973 91.10750292 266.86111515 88.64695428 264.51980019 85.68813133 C262.07400946 82.95489475 262.07400946 82.95489475 258.87030029 82.12698364 Z M391.29794312 85.96788025 C385.69459346 92.63619833 386.92987075 101.44811638 387.02801514 109.67263794 C387.02507607 111.56716592 387.01909668 113.46169126 387.01031494 115.35620117 C386.99552224 120.48647531 387.02426886 125.61566758 387.06174803 130.74579215 C387.09441214 136.11793876 387.08965603 141.49006181 387.08969116 146.86228943 C387.09525134 155.87982394 387.12754312 164.89694434 387.1774292 173.91433716 C387.23493751 184.3402417 387.257744 194.7657516 387.26031339 205.19180554 C387.26323703 216.29561996 387.28904615 227.39928913 387.32288027 238.50304818 C387.33124 241.70204821 387.33558623 244.9010337 387.33915329 248.10004234 C387.34605731 253.12427028 387.36847102 258.14820149 387.40292358 263.17231369 C387.4132859 265.01657656 387.41858669 266.86087579 387.4184761 268.70516777 C387.41924307 271.22126027 387.43844142 273.73655482 387.46243286 276.2525177 C387.45846918 276.98344956 387.45450549 277.71438141 387.45042169 278.46746272 C387.52318679 283.25705086 388.42380948 286.68049282 391.87030029 290.12698364 C397.16292739 290.68980444 397.16292739 290.68980444 401.80780029 288.75198364 C404.2115804 285.07561406 404.02696592 281.84532234 404.03765869 277.57531738 C404.04345208 276.7870439 404.04924546 275.99877042 404.05521441 275.18660986 C404.07333194 272.53050999 404.08416256 269.87443146 404.09490967 267.21829224 C404.10608113 265.31966964 404.11759433 263.42104902 404.12942505 261.52243042 C404.1660318 255.27345538 404.19120954 249.02445993 404.21405029 242.77542114 C404.21799616 241.71273781 404.22194202 240.65005448 404.22600746 239.55516863 C404.26243054 229.53474323 404.29387956 219.51431086 404.31511688 209.49384117 C404.34269212 196.67161932 404.39345231 183.84995068 404.47559118 171.02795923 C404.53137211 162.0155597 404.56035153 153.00331031 404.56959009 143.99074423 C404.57584973 138.60678482 404.59399066 133.22347359 404.64097595 127.83970261 C404.6846546 122.77189917 404.69512693 117.70509804 404.68034744 112.63713837 C404.68067603 110.77956305 404.69294721 108.92194459 404.71819687 107.06454086 C405.1974539 95.78879862 405.1974539 95.78879862 400.44464111 85.95916748 C396.69085889 82.47986285 395.04602761 82.48463099 391.29794312 85.96788025 Z M69.93280029 141.93948364 C68.12281366 145.66592671 67.74349371 148.52233019 67.73658752 152.6171875 C67.73232254 153.75841064 67.72805756 154.89963379 67.72366333 156.07543945 C67.72411652 157.32849884 67.7245697 158.58155823 67.72503662 159.87258911 C67.72167801 161.19148132 67.7183194 162.51037354 67.71485901 163.86923218 C67.70601852 167.48911414 67.70368086 171.10897248 67.70304322 174.72886419 C67.70209387 177.75070512 67.69841523 180.77254054 67.69487113 183.79437935 C67.68672626 190.92429326 67.68428691 198.05419453 67.68499756 205.18411255 C67.68559826 212.53848434 67.67504796 219.89278277 67.6592539 227.247136 C67.64617672 233.56145093 67.64081374 239.8757419 67.64145297 246.19007027 C67.64170792 249.96120095 67.63885842 253.73226645 67.62827492 257.50338364 C67.61859102 261.0508731 67.61851671 264.5982351 67.62579155 268.14572906 C67.62733514 270.06631589 67.61899252 271.9869027 67.61035156 273.9074707 C67.61454605 275.0543335 67.61874054 276.20119629 67.62306213 277.3828125 C67.62251737 278.37721785 67.6219726 279.37162319 67.62141132 280.39616203 C67.99239111 284.46656986 68.97169824 287.22838159 71.87030029 290.12698364 C75.95092018 290.69205482 75.95092018 290.69205482 79.87030029 290.12698364 C83.35997122 286.52152046 84.37086942 284.23238016 84.37823486 279.24441528 C84.38951416 278.06678619 84.40079346 276.8891571 84.41241455 275.67584229 C84.40431763 274.3925705 84.3962207 273.10929871 84.38787842 271.78713989 C84.39330153 270.41521462 84.40042525 269.04329517 84.40911865 267.67138672 C84.42733293 263.9523118 84.42029263 260.2336814 84.40760231 256.51459885 C84.39746468 252.61983811 84.4068701 248.72511504 84.41314697 244.83035278 C84.42042118 238.29016293 84.41084173 231.75015385 84.39178467 225.20999146 C84.37001622 217.65210388 84.37706776 210.09464794 84.39909029 202.53677082 C84.41725085 196.04403906 84.41979945 189.55143712 84.40933561 183.05868816 C84.40310424 179.18246576 84.4022551 175.30644614 84.41548157 171.43023682 C84.42704916 167.78570508 84.41899854 164.14172903 84.39590454 160.49725723 C84.38810529 158.52422089 84.39996564 156.55113748 84.41241455 154.578125 C84.40113525 153.40049591 84.38985596 152.22286682 84.37823486 151.009552 C84.37672676 149.98824692 84.37521866 148.96694183 84.37366486 147.91468811 C83.7358953 144.38262969 82.33824668 142.68466945 79.87030029 140.12698364 C76.21464459 138.99730885 72.80368256 139.25381958 69.93280029 141.93948364 Z M115.93280029 141.43948364 C113.79462969 144.83540166 113.74136824 147.79132059 113.7298584 151.69311523 C113.72414825 152.85116669 113.71843811 154.00921814 113.71255493 155.20236206 C113.71143707 156.47412292 113.71031921 157.74588379 113.70916748 159.05618286 C113.70453853 160.40810278 113.69951376 161.76002139 113.69412231 163.11193848 C113.68100463 166.78553261 113.67455471 170.45910848 113.67011166 174.13272238 C113.6671802 176.42783065 113.66307527 178.72293394 113.65860748 181.0180397 C113.64493485 188.19894445 113.63526678 195.37983779 113.63140559 202.56075466 C113.62692383 210.85018062 113.60936959 219.13944178 113.580405 227.42881763 C113.55879224 233.83654998 113.54870155 240.24423595 113.54736447 246.65200436 C113.54631624 250.47906462 113.54040462 254.3059699 113.52254486 258.13299179 C113.50607086 261.73305237 113.50390524 265.33284135 113.51268387 268.93292618 C113.5138218 270.88215355 113.50009962 272.83137188 113.4859314 274.7805481 C113.49150055 275.9442392 113.4970697 277.1079303 113.50280762 278.30688477 C113.50134106 279.3160388 113.4998745 280.32519283 113.49836349 281.36492729 C113.97409081 284.89774699 115.33294297 287.58962632 117.87030029 290.12698364 C123.13763678 290.67394594 123.13763678 290.67394594 127.80780029 288.81448364 C129.9459709 285.41856563 129.99923235 282.46264669 130.01074219 278.56085205 C130.01645233 277.4028006 130.02216248 276.24474915 130.02804565 275.05160522 C130.02916351 273.77984436 130.03028137 272.5080835 130.03143311 271.19778442 C130.03606206 269.84586451 130.04108683 268.4939459 130.04647827 267.14202881 C130.05959596 263.46843467 130.06604587 259.7948588 130.07048893 256.12124491 C130.07342039 253.82613663 130.07752531 251.53103335 130.0819931 249.23592758 C130.09566574 242.05502283 130.10533381 234.87412949 130.10919499 227.69321263 C130.11367675 219.40378666 130.131231 211.1145255 130.16019559 202.82514966 C130.18180834 196.4174173 130.19189904 190.00973134 130.19323611 183.60196292 C130.19428434 179.77490267 130.20019596 175.94799738 130.21805573 172.12097549 C130.23452972 168.52091492 130.23669535 164.92112593 130.22791672 161.32104111 C130.22677879 159.37181374 130.24050096 157.4225954 130.25466919 155.47341919 C130.24631546 153.72788254 130.24631546 153.72788254 130.23779297 151.94708252 C130.23925953 150.93792849 130.24072609 149.92877445 130.24223709 148.88903999 C129.76650978 145.35622029 128.40765761 142.66434096 125.87030029 140.12698364 C120.6029638 139.58002134 120.6029638 139.58002134 115.93280029 141.43948364 Z M298.99530029 141.43948364 C296.75053171 144.80663652 296.73963262 147.80835673 296.72312927 151.7310791 C296.71597397 152.89754471 296.70881866 154.06401031 296.70144653 155.26582336 C296.69875763 156.54693497 296.69606873 157.82804657 296.69329834 159.14797974 C296.68703242 160.50975213 296.68038551 161.87152281 296.67338562 163.23329163 C296.65236218 167.70565606 296.64198647 172.17802077 296.63201904 176.65042114 C296.62797118 178.19035485 296.62385425 179.73028837 296.61966896 181.27022171 C296.60062293 188.50344907 296.58638933 195.73666623 296.57805699 202.96991384 C296.5682792 211.31994804 296.5419433 219.66971754 296.5015561 228.01965845 C296.47140784 234.4740984 296.45658945 240.9284624 296.45327598 247.38297141 C296.45092445 251.23803239 296.44195078 255.09281039 296.4168148 258.94779587 C296.39355061 262.57417696 296.38929382 266.20008838 296.39957619 269.82652473 C296.4003083 271.79008628 296.38120648 273.75362389 296.36151123 275.71708679 C296.36845505 276.88919205 296.37539886 278.0612973 296.3825531 279.2689209 C296.38016475 280.28544928 296.37777639 281.30197765 296.37531567 282.34930992 C297.00391611 285.87678702 298.42295101 287.56039859 300.87030029 290.12698364 C303.42881477 291.36497452 304.63838588 291.17223524 307.43280029 290.62698364 C310.87489301 288.50877274 311.87234572 285.90634675 312.87030029 282.12698364 C313.30278484 277.79753164 313.28018342 273.49072052 313.25848389 269.14260864 C313.26374084 267.84585205 313.2689978 266.54909546 313.27441406 265.21304321 C313.28803814 261.67169197 313.28280952 258.13060424 313.27327681 254.58924866 C313.26565462 250.87428097 313.2727329 247.15933508 313.2774353 243.44436646 C313.28288543 237.20702078 313.27572081 230.96978184 313.26141357 224.73245239 C313.24508843 217.53248667 313.25037746 210.33277586 313.26689279 203.13281631 C313.2805289 196.93896435 313.28241696 190.74518889 313.27457678 184.55132675 C313.26991191 180.85730565 313.2692426 177.16340417 313.27918625 173.46939087 C313.28950165 169.34989449 313.27518394 165.23083407 313.25848389 161.11135864 C313.26455658 159.89452393 313.27062927 158.67768921 313.27688599 157.42398071 C313.23059514 151.25693828 313.00603285 146.51595044 309.87030029 141.12698364 C306.37103399 139.37735049 302.25244056 139.15948545 298.99530029 141.43948364 Z M344.67854881 142.2862463 C342.60745228 145.53991481 342.37175424 147.1965521 342.37582397 151.01628113 C342.367435 152.19535538 342.35904602 153.37442963 342.35040283 154.5892334 C342.36164185 155.87407623 342.37288086 157.15891907 342.38446045 158.48269653 C342.3823134 159.85624045 342.37843395 161.22978259 342.37295532 162.60331726 C342.36327523 166.32649113 342.37854755 170.04918426 342.39886141 173.7723 C342.41644936 177.67018017 342.41290701 181.56804588 342.41213989 185.46595764 C342.41401189 192.01035592 342.43136308 198.55456853 342.4586792 205.09890747 C342.49014209 212.66466761 342.50067487 220.23022453 342.49920809 227.79604536 C342.49785709 235.85284035 342.51173878 243.90955702 342.5301013 251.96632838 C342.53436323 254.28737546 342.53578355 256.60840989 342.53657913 258.92946053 C342.53858861 262.57632186 342.55080301 266.22301269 342.57091141 269.86981773 C342.5795371 271.84661487 342.57841869 273.82344698 342.57702637 275.80026245 C342.58555634 276.97651688 342.5940863 278.1527713 342.60287476 279.3646698 C342.60622644 280.38689668 342.60957813 281.40912355 342.61303139 282.462327 C342.87726902 285.19916204 343.3773975 286.83384692 344.87030029 289.12698364 C348.06382322 290.72374511 351.40340912 290.63138789 354.87030029 290.12698364 C358.16488991 287.36377944 358.30274408 284.23869246 358.87030029 280.12698364 C358.95771252 278.26083239 359.00069211 276.39218123 359.00401306 274.52398682 C359.00827805 273.43346008 359.01254303 272.34293335 359.01693726 271.21936035 C359.01625748 269.44717636 359.01625748 269.44717636 359.01556396 267.63919067 C359.01892258 266.38320068 359.02228119 265.12721069 359.02574158 263.8331604 C359.03454784 260.39919886 359.03691825 256.96526227 359.03755736 253.53129053 C359.03826973 251.38271356 359.04040758 249.23414288 359.04305458 247.08556747 C359.05229654 239.58097686 359.05639087 232.07640397 359.05560303 224.57180786 C359.05500241 217.59063198 359.06555412 210.60953341 359.08134669 203.62837708 C359.09444658 197.6222323 359.0997859 191.61611271 359.09914762 185.60995376 C359.09889337 182.02824231 359.10170411 178.44659964 359.11232567 174.8649025 C359.12385659 170.86773691 359.11924487 166.87074336 359.11322021 162.87356567 C359.12164948 161.10745438 359.12164948 161.10745438 359.13024902 159.30566406 C359.10709501 153.25471029 358.89100127 147.86397647 356.87030029 142.12698364 C352.57933959 139.26634318 348.56937938 138.45309039 344.67854881 142.2862463 Z " fill="#FFFFFF" transform="translate(2070.1296997070313,84.87301635742188)"/>
<path d="M0 0 C1.46943657 0.00056522 2.9388737 0.0002454 4.40830994 -0.00088501 C8.36838568 -0.00145522 12.32833851 0.01024489 16.28838587 0.02426291 C20.43768332 0.03682602 24.58698407 0.03794514 28.73629761 0.04031372 C36.5806283 0.04651217 44.42490277 0.0629007 52.26920879 0.0830127 C61.20517569 0.10542279 70.14114538 0.11637795 79.07713342 0.12640357 C97.44712464 0.14726849 115.81706365 0.18241244 134.18701172 0.22705078 C134.25720205 22.44579393 134.31004895 44.66451871 134.34244823 66.88335037 C134.35789399 77.20075444 134.37893957 87.51808947 134.41333008 97.83544922 C134.44330273 106.83174015 134.46260337 115.82798107 134.4692772 124.82432055 C134.47317616 129.58447384 134.4822912 134.34448408 134.50420189 139.10459137 C134.52469148 143.59268386 134.53082051 148.08057551 134.52633476 152.56871033 C134.52715442 154.20848942 134.53304534 155.84827583 134.54462814 157.48801422 C134.66497175 175.41677633 131.12999641 190.69238074 118.57006836 204.06103516 C110.36433898 212.34257759 98.28539264 219.83854545 86.3053627 220.35009861 C85.18077526 220.34917682 84.05618782 220.34825502 82.89752197 220.3473053 C81.60465775 220.34867996 80.31179352 220.35005463 78.97975159 220.35147095 C77.54916359 220.34793201 76.11857582 220.34429721 74.68798828 220.34057617 C73.1800283 220.34029407 71.67206818 220.34045249 70.16410828 220.34101868 C66.07148843 220.34130575 61.97889786 220.33542358 57.88628483 220.32844472 C53.60882274 220.32219618 49.33135999 220.32160619 45.05389404 220.32041931 C36.95438906 220.31731043 28.85489756 220.30910299 20.75539851 220.29906982 C11.53420131 220.28789495 2.31300346 220.28239477 -6.90819883 220.27737439 C-25.87646984 220.26692003 -44.84472748 220.24912785 -63.81298828 220.22705078 C-63.81298828 211.31705078 -63.81298828 202.40705078 -63.81298828 193.22705078 C-59.43734619 193.21246826 -55.0617041 193.19788574 -50.5534668 193.18286133 C-36.09263648 193.13251328 -21.63191319 193.06606726 -7.17118931 192.99133587 C1.59590386 192.94642117 10.36295681 192.90699656 19.13012695 192.88061523 C26.7739623 192.85760008 34.41766987 192.82416287 42.06140381 192.77834922 C46.10656714 192.75446432 50.1516043 192.73570461 54.19683647 192.72943687 C58.00951571 192.7233645 61.82187232 192.70328762 65.63443184 192.67277527 C67.02871582 192.66402938 68.42304202 192.66026527 69.81735229 192.66204262 C81.28167378 192.67203637 89.72307064 191.66122119 98.17138672 183.50830078 C103.6293576 177.33106241 105.43442976 171.5627414 105.81201172 163.38720703 C105.87001953 162.35086121 105.87001953 162.35086121 105.92919922 161.2935791 C106.0226367 159.60513467 106.10587395 157.91613095 106.18701172 156.22705078 C105.23727919 156.23258154 105.23727919 156.23258154 104.26836014 156.23822403 C88.81721729 156.32680524 73.36616355 156.39287176 57.91482925 156.43429947 C50.44247532 156.45486937 42.97029155 156.48288235 35.49804688 156.52880859 C28.98042769 156.56884817 22.46293182 156.59452403 15.94519305 156.60340476 C12.49839419 156.6085908 9.0519479 156.62066106 5.60526276 156.64997101 C1.74475308 156.6825296 -2.11542089 156.68299929 -5.97607422 156.68115234 C-7.10177322 156.69553345 -8.22747223 156.70991455 -9.38728333 156.72473145 C-25.87214955 156.63987927 -38.31182866 149.51194928 -49.81298828 138.22705078 C-50.68117188 137.39560547 -50.68117188 137.39560547 -51.56689453 136.54736328 C-59.37810036 128.34865638 -64.02732397 115.76513708 -64.10351562 104.56420898 C-64.11627533 103.28210037 -64.12903503 101.99999176 -64.1421814 100.67903137 C-64.14524041 99.29529981 -64.14746744 97.9115662 -64.14892578 96.52783203 C-64.15536551 95.08684664 -64.16209471 93.64586252 -64.1690979 92.20487976 C-64.1810366 89.18985977 -64.18478245 86.17495404 -64.18359375 83.15991211 C-64.18339119 79.32827912 -64.21064192 75.4973931 -64.24513817 71.66593647 C-64.26756705 68.6895981 -64.27142639 65.71343465 -64.2703743 62.73702049 C-64.27270828 61.32624944 -64.28140498 59.91547189 -64.29703903 58.50478554 C-64.47010148 41.27095468 -59.04300442 28.12183276 -47.30126953 15.55126953 C-33.58530271 2.73965217 -18.09514543 -0.09826204 0 0 Z M-29.81298828 37.22705078 C-34.25390274 43.65331523 -36.88801669 48.69037416 -37.02172852 56.53955078 C-37.04101913 57.60165771 -37.06030975 58.66376465 -37.08018494 59.75805664 C-37.13830086 64.62805503 -37.18724041 69.49791042 -37.21801758 74.36816406 C-37.23954535 76.92657004 -37.27358513 79.48490341 -37.32055664 82.04296875 C-37.38795311 85.75049417 -37.41508714 89.45649703 -37.43408203 93.16455078 C-37.46191269 94.293125 -37.48974335 95.42169922 -37.51841736 96.58447266 C-37.49504116 105.74556757 -34.98674801 113.58352817 -28.7719574 120.49780273 C-19.92410666 128.85708428 -10.13132777 129.37996754 1.51660156 129.34057617 C2.64889191 129.3407222 3.78118225 129.34086823 4.94778442 129.34101868 C8.68119234 129.34032338 12.41455004 129.33254888 16.14794922 129.32470703 C18.7401222 129.32284149 21.33229553 129.32141823 23.92446899 129.32041931 C30.0441578 129.31699449 36.16382595 129.30911721 42.28350699 129.29906982 C49.93753636 129.28677723 57.59156868 129.28131787 65.24560547 129.27587891 C78.89275486 129.26615116 92.53986509 129.24611696 106.18701172 129.22705078 C106.18701172 95.89705078 106.18701172 62.56705078 106.18701172 28.22705078 C84.06796572 28.10681981 84.06796572 28.10681981 61.94887352 28.02603531 C54.0361301 28.00389939 46.12355599 27.97582928 38.2109375 27.92529297 C31.94457416 27.88529021 25.67833878 27.85958616 19.41185129 27.8506968 C16.09699331 27.84550456 12.78258435 27.83126125 9.46782303 27.80413055 C5.75762733 27.77497853 2.04818293 27.77109989 -1.66210938 27.77294922 C-2.74824524 27.75856812 -3.8343811 27.74418701 -4.95343018 27.72937012 C-14.55345933 27.78094813 -23.01272842 30.1176882 -29.81298828 37.22705078 Z " fill="#FFFFFF" transform="translate(870.81298828125,178.77294921875)"/>
<path d="M0 0 C1.46943657 0.00056522 2.9388737 0.0002454 4.40830994 -0.00088501 C8.36838568 -0.00145522 12.32833851 0.01024489 16.28838587 0.02426291 C20.43768332 0.03682602 24.58698407 0.03794514 28.73629761 0.04031372 C36.5806283 0.04651217 44.42490277 0.0629007 52.26920879 0.0830127 C61.20517569 0.10542279 70.14114538 0.11637795 79.07713342 0.12640357 C97.44713113 0.1472685 115.81705185 0.18392414 134.18701172 0.22705078 C134.18701172 9.46705078 134.18701172 18.70705078 134.18701172 28.22705078 C127.52481445 28.24892456 127.52481445 28.24892456 120.72802734 28.27124023 C106.05564722 28.32157058 91.38337278 28.38801309 76.71109772 28.46276569 C67.81506028 28.50769586 58.91906263 28.54711693 50.02294922 28.57348633 C42.26742305 28.59648892 34.51202308 28.6299122 26.75659704 28.67575234 C22.65166202 28.69965411 18.54685174 28.71840281 14.44184875 28.72466469 C10.57418232 28.73072938 6.70683494 28.75077885 2.8392868 28.78132629 C1.42361927 28.79008441 0.00791 28.79383373 -1.40778351 28.79205894 C-12.06433646 28.78292149 -19.98752627 29.60736074 -27.98876953 37.16845703 C-35.15394879 45.25421606 -35.34929336 53.24933887 -36.81298828 64.22705078 C19.61701172 64.22705078 76.04701172 64.22705078 134.18701172 64.22705078 C134.18701172 73.46705078 134.18701172 82.70705078 134.18701172 92.22705078 C77.75701172 92.22705078 21.32701172 92.22705078 -36.81298828 92.22705078 C-34.85941792 109.38544375 -34.85941792 109.38544375 -24.81298828 122.22705078 C-15.50180992 128.37594215 -6.59633539 128.52801311 4.31396484 128.54589844 C5.73385176 128.55520952 7.15373325 128.56537993 8.5736084 128.57633972 C12.4077117 128.60352088 16.24177849 128.61875365 20.07595253 128.63176775 C24.09051296 128.64745059 28.10499943 128.67422426 32.11950684 128.69979858 C39.71239587 128.74649544 47.30529895 128.78328342 54.89825773 128.81647146 C63.54645029 128.85475727 72.1945684 128.90415042 80.8426981 128.95445561 C98.62408772 129.05764019 116.40550891 129.14547817 134.18701172 129.22705078 C134.18701172 138.13705078 134.18701172 147.04705078 134.18701172 156.22705078 C114.44557469 156.31982247 94.70419965 156.39111901 74.96258926 156.43429947 C65.79529631 156.45488578 56.62814166 156.48293082 47.4609375 156.52880859 C39.46666261 156.56879716 31.47248793 156.59451214 23.4781158 156.60340476 C19.24886711 156.60859925 15.01990502 156.62072525 10.7907486 156.64997101 C6.80163501 156.6773306 2.81292325 156.68545481 -1.17627525 156.67948151 C-2.63223398 156.68057264 -4.0882076 156.68840354 -5.54408455 156.70387268 C-22.34532681 156.87347834 -36.11351526 151.72589427 -48.56298828 140.28955078 C-57.52516083 130.91234274 -64.01459295 117.63672324 -64.10351562 104.56420898 C-64.11627533 103.28210037 -64.12903503 101.99999176 -64.1421814 100.67903137 C-64.14524041 99.29529981 -64.14746744 97.9115662 -64.14892578 96.52783203 C-64.15536551 95.08684664 -64.16209471 93.64586252 -64.1690979 92.20487976 C-64.1810366 89.18985977 -64.18478245 86.17495404 -64.18359375 83.15991211 C-64.18339119 79.32827912 -64.21064192 75.4973931 -64.24513817 71.66593647 C-64.26756705 68.6895981 -64.27142639 65.71343465 -64.2703743 62.73702049 C-64.27270828 61.32624944 -64.28140498 59.91547189 -64.29703903 58.50478554 C-64.47010148 41.27095468 -59.04300442 28.12183276 -47.30126953 15.55126953 C-33.58530271 2.73965217 -18.09514543 -0.09826204 0 0 Z " fill="#FFFFFF" transform="translate(1548.81298828125,178.77294921875)"/>
<path d="M0 0 C1.46943657 0.00056522 2.9388737 0.0002454 4.40830994 -0.00088501 C8.36838568 -0.00145522 12.32833851 0.01024489 16.28838587 0.02426291 C20.43768332 0.03682602 24.58698407 0.03794514 28.73629761 0.04031372 C36.5806283 0.04651217 44.42490277 0.0629007 52.26920879 0.0830127 C61.20517569 0.10542279 70.14114538 0.11637795 79.07713342 0.12640357 C97.44713113 0.1472685 115.81705185 0.18392414 134.18701172 0.22705078 C134.18701172 9.46705078 134.18701172 18.70705078 134.18701172 28.22705078 C127.52481445 28.24892456 127.52481445 28.24892456 120.72802734 28.27124023 C106.05564722 28.32157058 91.38337278 28.38801309 76.71109772 28.46276569 C67.81506028 28.50769586 58.91906263 28.54711693 50.02294922 28.57348633 C42.26742305 28.59648892 34.51202308 28.6299122 26.75659704 28.67575234 C22.65166202 28.69965411 18.54685174 28.71840281 14.44184875 28.72466469 C10.57418232 28.73072938 6.70683494 28.75077885 2.8392868 28.78132629 C1.42361927 28.79008441 0.00791 28.79383373 -1.40778351 28.79205894 C-12.06433646 28.78292149 -19.98752627 29.60736074 -27.98876953 37.16845703 C-35.15394879 45.25421606 -35.34929336 53.24933887 -36.81298828 64.22705078 C19.61701172 64.22705078 76.04701172 64.22705078 134.18701172 64.22705078 C134.18701172 73.46705078 134.18701172 82.70705078 134.18701172 92.22705078 C77.75701172 92.22705078 21.32701172 92.22705078 -36.81298828 92.22705078 C-34.85941792 109.38544375 -34.85941792 109.38544375 -24.81298828 122.22705078 C-15.50180992 128.37594215 -6.59633539 128.52801311 4.31396484 128.54589844 C5.73385176 128.55520952 7.15373325 128.56537993 8.5736084 128.57633972 C12.4077117 128.60352088 16.24177849 128.61875365 20.07595253 128.63176775 C24.09051296 128.64745059 28.10499943 128.67422426 32.11950684 128.69979858 C39.71239587 128.74649544 47.30529895 128.78328342 54.89825773 128.81647146 C63.54645029 128.85475727 72.1945684 128.90415042 80.8426981 128.95445561 C98.62408772 129.05764019 116.40550891 129.14547817 134.18701172 129.22705078 C134.18701172 138.13705078 134.18701172 147.04705078 134.18701172 156.22705078 C114.44557469 156.31982247 94.70419965 156.39111901 74.96258926 156.43429947 C65.79529631 156.45488578 56.62814166 156.48293082 47.4609375 156.52880859 C39.46666261 156.56879716 31.47248793 156.59451214 23.4781158 156.60340476 C19.24886711 156.60859925 15.01990502 156.62072525 10.7907486 156.64997101 C6.80163501 156.6773306 2.81292325 156.68545481 -1.17627525 156.67948151 C-2.63223398 156.68057264 -4.0882076 156.68840354 -5.54408455 156.70387268 C-22.34532681 156.87347834 -36.11351526 151.72589427 -48.56298828 140.28955078 C-57.52516083 130.91234274 -64.01459295 117.63672324 -64.10351562 104.56420898 C-64.11627533 103.28210037 -64.12903503 101.99999176 -64.1421814 100.67903137 C-64.14524041 99.29529981 -64.14746744 97.9115662 -64.14892578 96.52783203 C-64.15536551 95.08684664 -64.16209471 93.64586252 -64.1690979 92.20487976 C-64.1810366 89.18985977 -64.18478245 86.17495404 -64.18359375 83.15991211 C-64.18339119 79.32827912 -64.21064192 75.4973931 -64.24513817 71.66593647 C-64.26756705 68.6895981 -64.27142639 65.71343465 -64.2703743 62.73702049 C-64.27270828 61.32624944 -64.28140498 59.91547189 -64.29703903 58.50478554 C-64.47010148 41.27095468 -59.04300442 28.12183276 -47.30126953 15.55126953 C-33.58530271 2.73965217 -18.09514543 -0.09826204 0 0 Z " fill="#FFFFFF" transform="translate(588.81298828125,178.77294921875)"/>
<path d="M0 0 C9.24 0 18.48 0 28 0 C28 14.19 28 28.38 28 43 C63.31 43 98.62 43 135 43 C135 52.24 135 61.48 135 71 C99.69 71 64.38 71 28 71 C28.0825 83.313125 28.165 95.62625 28.25 108.3125 C28.27368652 114.1138855 28.27368652 114.1138855 28.29785156 120.0324707 C28.33112922 123.54234764 28.33112922 123.54234764 28.36956787 127.0521698 C28.38404664 128.59830262 28.39094822 130.1445191 28.39154053 131.6907196 C28.40253563 142.28925831 28.63693007 152.64872413 35.375 161.4375 C43.57931488 169.44647405 51.8984859 171.11717528 63.02490234 171.20532227 C63.80606415 171.21522186 64.58722595 171.22512146 65.39205933 171.23532104 C67.95665527 171.26673757 70.52126969 171.2916144 73.0859375 171.31640625 C74.87098656 171.33699295 76.65603093 171.35798986 78.44107056 171.37937927 C83.12632437 171.43442279 87.81162088 171.48390981 92.49694824 171.53222656 C97.28316014 171.58257141 102.06931047 171.63818954 106.85546875 171.69335938 C116.23692839 171.80072405 125.61844069 171.90172904 135 172 C135 180.91 135 189.82 135 199 C123.62037281 199.0907049 112.24098939 199.16394802 100.86108112 199.20724869 C95.57578817 199.22804058 90.29075737 199.25620332 85.00561523 199.30175781 C79.89625187 199.34551693 74.7871392 199.36920011 69.67760277 199.37950897 C67.73733772 199.38684673 65.79708493 199.40117426 63.85692787 199.42292023 C47.68272188 199.5968429 35.43312956 197.86923804 22 188 C21.29230469 187.49984375 20.58460937 186.9996875 19.85546875 186.484375 C8.70938934 177.7785615 2.44067454 164.00727588 0.46607971 150.29125977 C-0.02272237 146.25209482 -0.12040244 142.27824678 -0.11352539 138.20703125 C-0.11367142 137.47434525 -0.11381744 136.74165924 -0.1139679 135.98677063 C-0.11327823 133.59531563 -0.10553076 131.20394118 -0.09765625 128.8125 C-0.0957887 127.1424158 -0.09436639 125.47233104 -0.09336853 123.80224609 C-0.08956988 119.42932596 -0.07976254 115.0564396 -0.06866455 110.68353271 C-0.05658381 105.4245829 -0.05203555 100.16562173 -0.04621124 94.90666199 C-0.03654913 86.93775124 -0.01737409 78.96891446 0 71 C-20.79 71 -41.58 71 -63 71 C-63 61.76 -63 52.52 -63 43 C-42.21 43 -21.42 43 0 43 C0 28.81 0 14.62 0 0 Z " fill="#FFFFFF" transform="translate(1322,136)"/>
<path d="M0 0 C1.26195694 -0.00137466 2.52391388 -0.00274933 3.82411194 -0.00416565 C5.209656 -0.00062721 6.59519982 0.00300759 7.98074341 0.00672913 C9.44959003 0.0070114 10.91843679 0.00685247 12.38728333 0.00628662 C16.36408635 0.00600023 20.34085909 0.01187141 24.31765509 0.01886058 C28.47765797 0.02512044 32.63766159 0.0257 36.79766846 0.02688599 C44.67044485 0.02999154 52.54320733 0.03819447 60.4159776 0.04823548 C69.38087775 0.0594207 78.34577857 0.06491314 87.31068397 0.06993091 C105.74775103 0.08037773 124.18479902 0.09871357 142.62185669 0.12025452 C142.62185669 9.36025452 142.62185669 18.60025452 142.62185669 28.12025452 C138.19086548 28.12960022 133.75987427 28.13894592 129.1946106 28.14857483 C114.54617825 28.18235873 99.89788592 28.23771549 85.24956703 28.30415726 C76.3692661 28.34391088 67.48905332 28.37632201 58.6086731 28.39125061 C50.86555384 28.40428624 43.12262884 28.43129949 35.379619 28.47486758 C31.28240678 28.4974396 27.18543375 28.51316777 23.08815384 28.51213837 C19.22533007 28.51138922 15.36303421 28.52944118 11.50034714 28.56142235 C10.08874675 28.56988537 8.6770869 28.5716959 7.26547241 28.56605721 C-2.33229133 28.53284919 -10.70250535 29.15612668 -18.25314331 35.55775452 C-19.30501831 36.82619202 -19.30501831 36.82619202 -20.37814331 38.12025452 C-21.43001831 39.23400452 -21.43001831 39.23400452 -22.50314331 40.37025452 C-27.47037065 47.65552127 -27.83560532 55.39773361 -27.81173706 63.98744202 C-27.81959984 65.66049911 -27.81959984 65.66049911 -27.82762146 67.36735535 C-27.83401523 69.71548128 -27.83273917 72.06363935 -27.82418823 74.41175842 C-27.8156846 77.97793925 -27.84446925 81.54251296 -27.87619019 85.10853577 C-27.87780277 87.40150404 -27.87722358 89.69447512 -27.87423706 91.98744202 C-27.88547104 93.03987091 -27.89670502 94.0922998 -27.90827942 95.17662048 C-27.82200226 104.47667758 -25.79203564 113.67500272 -19.21408081 120.62025452 C-12.03545073 126.48534803 -4.28270338 128.22293172 4.81018066 128.2784729 C6.64000992 128.29315613 6.64000992 128.29315613 8.50680542 128.30813599 C9.8451229 128.3140389 11.18344079 128.31984943 12.52175903 128.32557678 C13.94134806 128.33516451 15.36093428 128.3451751 16.78051758 128.35557556 C20.62299696 128.38253384 24.4654885 128.40359234 28.30800962 128.42357755 C32.32790037 128.44549331 36.34775399 128.47285457 40.36761475 128.49963379 C47.97474436 128.54948525 55.58189467 128.59445198 63.18906462 128.63765615 C71.85169948 128.68709315 80.51429707 128.74198725 89.17689586 128.79733574 C106.99184971 128.9110399 124.80683793 129.01718366 142.62185669 129.12025452 C142.62185669 138.03025452 142.62185669 146.94025452 142.62185669 156.12025452 C122.89769044 156.21305407 103.17358633 156.28433692 83.44924641 156.3275032 C74.28982906 156.34808338 65.13055029 156.37611655 55.97122192 156.42201233 C47.98316337 156.46201983 39.99520523 156.48772032 32.00704926 156.4966085 C27.78168084 156.50179982 23.55659955 156.51390522 19.33132362 156.54317474 C15.34466921 156.57056443 11.35841698 156.57865263 7.3716774 156.57268524 C5.91775124 156.57377506 4.46380996 156.58158773 3.0099659 156.59707642 C-11.45374823 156.74345454 -22.65475749 153.60224061 -34.37814331 145.12025452 C-35.43001831 144.37775452 -36.48189331 143.63525452 -37.56564331 142.87025452 C-46.8601097 133.78233182 -54.56596804 121.04111034 -55.64556885 107.85360718 C-55.65319244 106.73286301 -55.66081604 105.61211884 -55.66867065 104.45741272 C-55.68143036 103.17530411 -55.69419006 101.8931955 -55.70733643 100.57223511 C-55.71039544 99.18850355 -55.71262247 97.80476994 -55.71408081 96.42103577 C-55.72052054 94.98005038 -55.72724974 93.53906626 -55.73425293 92.0980835 C-55.74619163 89.08306351 -55.74993748 86.06815778 -55.74874878 83.05311584 C-55.74854622 79.22148285 -55.77579695 75.39059683 -55.8102932 71.55914021 C-55.83272208 68.58280184 -55.83658142 65.60663838 -55.83552933 62.63022423 C-55.83786331 61.21945317 -55.84656001 59.80867563 -55.86219406 58.39798927 C-56.02835659 41.85126289 -51.106024 27.84725499 -39.56564331 15.74525452 C-28.60944499 5.43353845 -15.08044191 -0.01271538 0 0 Z " fill="#FFFFFF" transform="translate(1766.3781433105469,178.87974548339844)"/>
<path d="M0 0 C36.50625 -0.0928125 36.50625 -0.0928125 73.75 -0.1875 C85.25439941 -0.22846802 85.25439941 -0.22846802 96.99121094 -0.27026367 C106.39501953 -0.28381348 106.39501953 -0.28381348 110.80474854 -0.28633118 C113.86845488 -0.28911326 116.93200347 -0.30030399 119.9956665 -0.31672668 C123.9160008 -0.33745984 127.83610906 -0.34344496 131.75649309 -0.33921683 C133.18748637 -0.34009962 134.61848838 -0.34595578 136.04943419 -0.35764539 C154.00281114 -0.4973747 169.89465226 4.22615347 183 17 C193.80220142 29.49182519 198.34691843 42.64033845 198.22705078 58.93579102 C198.22734283 59.99049088 198.22763489 61.04519073 198.22793579 62.1318512 C198.22655166 65.58928899 198.2110337 69.04650648 198.1953125 72.50390625 C198.19157911 74.91242861 198.18873368 77.3209525 198.18673706 79.72947693 C198.17912628 86.04725387 198.15949977 92.36493784 198.1373291 98.68267822 C198.11681555 105.13804873 198.10772358 111.59343437 198.09765625 118.04882812 C198.07625142 130.69926602 198.04109014 143.34961071 198 156 C188.76 156 179.52 156 170 156 C169.9906543 152.83607666 169.98130859 149.67215332 169.97167969 146.41235352 C169.93786831 135.94287058 169.88229597 125.47358389 169.81609726 115.00425816 C169.77663759 108.65850879 169.74444146 102.31289789 169.72900391 95.96704102 C169.71382775 89.83957319 169.67936418 83.71248605 169.63169098 77.58518791 C169.61688726 75.25093843 169.60895957 72.9166346 169.60811615 70.58233833 C169.60574182 67.30521481 169.57862275 64.02913935 169.54589844 60.75219727 C169.5509288 59.79337646 169.55595917 58.83455566 169.56114197 57.84667969 C169.42630609 49.08293319 166.64782069 42.01055526 160.71484375 35.50390625 C155.74679102 31.14695795 149.59026862 28.88925583 143.04560852 28.84178162 C142.02549588 28.83200759 141.00538324 28.82223356 139.9543581 28.81216335 C138.83158057 28.8063931 137.70880304 28.80062284 136.55200195 28.79467773 C135.35226588 28.78464501 134.15252981 28.77461229 132.9164381 28.76427555 C129.02373895 28.73283374 125.13102964 28.70809589 121.23828125 28.68359375 C118.83866031 28.66519556 116.43904269 28.64635917 114.03942871 28.6270752 C105.13049178 28.55856564 96.22149115 28.49855253 87.3125 28.4375 C57.4578125 28.2209375 57.4578125 28.2209375 27 28 C27 70.24 27 112.48 27 156 C18.09 156 9.18 156 0 156 C0 104.52 0 53.04 0 0 Z " fill="#FFFFFF" transform="translate(1033,179)"/>
<path d="M0 0 C1.46943657 0.00056522 2.9388737 0.0002454 4.40830994 -0.00088501 C8.36838568 -0.00145522 12.32833851 0.01024489 16.28838587 0.02426291 C20.43768332 0.03682602 24.58698407 0.03794514 28.73629761 0.04031372 C36.5806283 0.04651217 44.42490277 0.0629007 52.26920879 0.0830127 C61.20517569 0.10542279 70.14114538 0.11637795 79.07713342 0.12640357 C97.44713113 0.1472685 115.81705185 0.18392414 134.18701172 0.22705078 C134.18701172 9.46705078 134.18701172 18.70705078 134.18701172 28.22705078 C129.75602051 28.23639648 125.3250293 28.24574219 120.75976562 28.25537109 C106.11133328 28.289155 91.46304095 28.34451175 76.81472206 28.41095352 C67.93442113 28.45070714 59.05420835 28.48311827 50.17382812 28.49804688 C42.43070887 28.5110825 34.68778387 28.53809576 26.94477403 28.58166385 C22.84756181 28.60423587 18.75058878 28.61996403 14.65330887 28.61893463 C10.7904851 28.61818548 6.92818924 28.63623744 3.06550217 28.66821861 C1.65390178 28.67668163 0.24224193 28.67849216 -1.16937256 28.67285347 C-10.7671363 28.63964546 -19.13735032 29.26292295 -26.68798828 35.66455078 C-27.73986328 36.93298828 -27.73986328 36.93298828 -28.81298828 38.22705078 C-29.86486328 39.34080078 -29.86486328 39.34080078 -30.93798828 40.47705078 C-35.62960362 47.35808661 -36.25777163 54.66573246 -36.24536133 62.7956543 C-36.25555298 63.81133987 -36.26574463 64.82702545 -36.27624512 65.87348938 C-36.30622542 69.2010358 -36.31561827 72.52829364 -36.32470703 75.85595703 C-36.34156478 78.17480922 -36.35971649 80.49365233 -36.37910461 82.81248474 C-36.42649143 88.89345463 -36.4563741 94.97438769 -36.48254395 101.05548096 C-36.51240655 107.26964587 -36.55891731 113.4836841 -36.60400391 119.69775391 C-36.68990842 131.87413429 -36.75577092 144.05050176 -36.81298828 156.22705078 C-45.72298828 156.22705078 -54.63298828 156.22705078 -63.81298828 156.22705078 C-63.90354863 141.96170677 -63.97685408 127.69655536 -64.02023697 113.43098831 C-64.04106414 106.80609664 -64.06929311 100.18141274 -64.11474609 93.55664062 C-64.158377 87.15699994 -64.18216199 80.75755846 -64.19249725 74.35778046 C-64.19985767 71.92267473 -64.21423049 69.48757925 -64.23590851 67.0525589 C-64.265171 63.62774037 -64.26893466 60.20373307 -64.26708984 56.77880859 C-64.28147095 55.78401993 -64.29585205 54.78923126 -64.31066895 53.76429749 C-64.22398151 38.77999321 -57.34674935 26.30584205 -47.30126953 15.55126953 C-33.58530271 2.73965217 -18.09514543 -0.09826204 0 0 Z " fill="#FFFFFF" transform="translate(368.81298828125,178.77294921875)"/>
<path d="M0 0 C8.91 0 17.82 0 27 0 C27 51.48 27 102.96 27 156 C18.09 156 9.18 156 0 156 C0 104.52 0 53.04 0 0 Z " fill="#FFFFFF" transform="translate(752,179)"/>
</svg>
